<svg width="38" height="39" viewBox="0 0 38 39" fill="none" xmlns="http://www.w3.org/2000/svg">
<circle cx="19.1314" cy="19.4605" r="18.6768" fill="#C1DCDC"/>
<circle cx="19.1314" cy="19.4605" r="18.6768" fill="#C1DCDC"/>
<g clip-path="url(#clip0_21_170)">
<path d="M14.9049 12.9703C14.8474 12.8964 14.775 12.8356 14.6922 12.7919C14.6095 12.7482 14.5184 12.7226 14.425 12.7168C14.3316 12.711 14.2381 12.7251 14.1506 12.7583C14.0631 12.7914 13.9836 12.8428 13.9175 12.909L12.9117 13.9158C12.4419 14.3866 12.2687 15.0529 12.474 15.6375C13.3258 18.0574 14.7116 20.2543 16.5284 22.0655C18.3396 23.8823 20.5365 25.268 22.9563 26.1199C23.541 26.3252 24.2073 26.152 24.6781 25.6822L25.6839 24.6764C25.7501 24.6102 25.8015 24.5308 25.8346 24.4433C25.8678 24.3558 25.8819 24.2622 25.8761 24.1688C25.8703 24.0755 25.8447 23.9844 25.801 23.9016C25.7573 23.8189 25.6965 23.7464 25.6226 23.689L23.3785 21.9439C23.2996 21.8827 23.2078 21.8402 23.1101 21.8196C23.0123 21.7991 22.9112 21.801 22.8143 21.8252L20.684 22.3573C20.3996 22.4284 20.1017 22.4246 19.8192 22.3464C19.5368 22.2681 19.2794 22.1181 19.0721 21.9108L16.6831 19.5208C16.4756 19.3136 16.3254 19.0563 16.247 18.7738C16.1686 18.4913 16.1646 18.1934 16.2356 17.9089L16.7687 15.7786C16.7929 15.6817 16.7948 15.5806 16.7742 15.4828C16.7537 15.3851 16.7112 15.2933 16.65 15.2144L14.9049 12.9703ZM13.1831 12.1755C13.3533 12.0052 13.5578 11.8731 13.783 11.7879C14.0082 11.7028 14.249 11.6665 14.4893 11.6815C14.7296 11.6965 14.964 11.7624 15.1768 11.8749C15.3897 11.9874 15.5762 12.144 15.7239 12.3341L17.469 14.5772C17.7891 14.9887 17.9019 15.5247 17.7755 16.0305L17.2434 18.1609C17.2159 18.2712 17.2173 18.3868 17.2477 18.4964C17.278 18.606 17.3362 18.7059 17.4165 18.7863L19.8066 21.1764C19.8871 21.2569 19.9872 21.3151 20.097 21.3455C20.2068 21.3758 20.3225 21.3772 20.433 21.3495L22.5624 20.8174C22.812 20.755 23.0725 20.7502 23.3243 20.8033C23.5761 20.8564 23.8125 20.966 24.0157 21.1239L26.2588 22.869C27.0652 23.4964 27.1392 24.688 26.4174 25.4088L25.4116 26.4147C24.6917 27.1345 23.6159 27.4506 22.6129 27.0975C20.046 26.1944 17.7154 24.7248 15.794 22.798C13.8672 20.8768 12.3977 18.5465 11.4944 15.98C11.1423 14.978 11.4584 13.9012 12.1782 13.1813L13.1841 12.1755H13.1831ZM22.0507 12.1648C22.0507 12.0358 22.1019 11.9121 22.1932 11.8209C22.2844 11.7297 22.4081 11.6784 22.5371 11.6784H26.4281C26.5571 11.6784 26.6808 11.7297 26.772 11.8209C26.8632 11.9121 26.9145 12.0358 26.9145 12.1648V16.0558C26.9145 16.1848 26.8632 16.3085 26.772 16.3997C26.6808 16.491 26.5571 16.5422 26.4281 16.5422C26.2991 16.5422 26.1754 16.491 26.0842 16.3997C25.9929 16.3085 25.9417 16.1848 25.9417 16.0558V13.3389L21.9087 17.3729C21.8173 17.4643 21.6935 17.5156 21.5643 17.5156C21.4352 17.5156 21.3113 17.4643 21.22 17.3729C21.1286 17.2816 21.0773 17.1577 21.0773 17.0286C21.0773 16.8994 21.1286 16.7756 21.22 16.6842L25.254 12.6512H22.5371C22.4081 12.6512 22.2844 12.6 22.1932 12.5087C22.1019 12.4175 22.0507 12.2938 22.0507 12.1648Z" fill="#1E1E1E"/>
</g>
<defs>
<clipPath id="clip0_21_170">
<rect width="15.564" height="15.564" fill="white" transform="translate(11.3501 11.6786)"/>
</clipPath>
</defs>
</svg>
