<svg width="38" height="39" viewBox="0 0 38 39" fill="none" xmlns="http://www.w3.org/2000/svg">
<circle cx="19.174" cy="19.4605" r="18.6768" fill="#C1DCDC"/>
<path d="M24.4664 20.6579H18.4974L18.6803 20.4821L20.2414 18.9811C20.8719 19.2864 21.5666 19.4491 22.2725 19.457C22.9831 19.4588 23.6803 19.2718 24.2874 18.9167C26.1333 17.8422 27.1224 15.355 26.9333 12.2632C26.9244 12.1167 26.8599 11.9785 26.752 11.8748C26.6442 11.7711 26.5004 11.709 26.3481 11.7005C23.1325 11.5194 20.5457 12.4697 19.4281 14.2446C18.6997 15.4006 18.681 16.7969 19.3604 18.1355L18.2406 19.2123L17.2903 18.2986C17.7573 17.3072 17.7238 16.2783 17.1822 15.4193C16.3362 14.0732 14.3969 13.3556 11.9937 13.4911C11.8417 13.4998 11.6982 13.5618 11.5905 13.6653C11.4828 13.7689 11.4184 13.9068 11.4093 14.053C11.2677 16.3629 12.0148 18.2276 13.4156 19.0417C13.8842 19.3168 14.4229 19.4618 14.972 19.4607C15.4702 19.4559 15.9615 19.3491 16.4133 19.1472L17.3596 20.0593L16.737 20.6579H13.2599C13.0948 20.6579 12.9364 20.721 12.8197 20.8332C12.7029 20.9455 12.6373 21.0978 12.6373 21.2565C12.6373 21.4153 12.7029 21.5675 12.8197 21.6798C12.9364 21.7921 13.0948 21.8551 13.2599 21.8551H14.0062L15.0343 26.305C15.0945 26.5715 15.2481 26.8101 15.4694 26.9808C15.6907 27.1514 15.9662 27.2439 16.2499 27.2426H21.4772C21.7609 27.2439 22.0364 27.1514 22.2576 26.9808C22.4789 26.8101 22.6325 26.5715 22.6928 26.305L23.7208 21.8551H24.4664C24.6315 21.8551 24.7898 21.7921 24.9066 21.6798C25.0233 21.5675 25.0889 21.4153 25.0889 21.2565C25.0889 21.0978 25.0233 20.9455 24.9066 20.8332C24.7898 20.721 24.6315 20.6579 24.4664 20.6579ZM20.4974 14.8649C21.3114 13.5734 23.2399 12.8446 25.7115 12.8768C25.7434 15.257 24.987 17.1104 23.6438 17.8901C22.748 18.4139 21.6671 18.3795 20.5869 17.8018C19.9853 16.767 19.9526 15.7261 20.4974 14.8649ZM16.0701 17.9724C15.3541 18.3413 14.6452 18.3585 14.0599 18.0173C13.165 17.4958 12.649 16.2664 12.6373 14.6718C14.2957 14.6831 15.5751 15.1791 16.1168 16.0396C16.4716 16.6023 16.4506 17.284 16.0701 17.9724ZM21.4772 26.0454H16.2499L15.2833 21.8551H22.443L21.4772 26.0454Z" fill="#1E1E1E"/>
</svg>
