<svg width="38" height="39" viewBox="0 0 38 39" fill="none" xmlns="http://www.w3.org/2000/svg">
<circle cx="19.1529" cy="19.4605" r="18.6768" fill="#C1DCDC"/>
<g clip-path="url(#clip0_21_162)">
<path d="M19.3338 12.7614C19.2177 12.7148 19.0881 12.7148 18.972 12.7614L13.1666 15.0833L15.5051 16.0181L21.4914 13.6242L19.3338 12.7614ZM22.8007 14.1485L16.8144 16.5424L19.1529 17.4773L25.1392 15.0833L22.8007 14.1485ZM25.9621 15.8022L19.6393 18.3313V26.0375L25.9621 23.5083V15.8022ZM18.6665 26.0384V18.3304L12.3436 15.8022V23.5093L18.6665 26.0384ZM18.6111 11.8577C18.9589 11.7186 19.3469 11.7186 19.6947 11.8577L26.6294 14.632C26.7196 14.6681 26.7969 14.7304 26.8513 14.8108C26.9058 14.8913 26.9349 14.9862 26.9349 15.0833V23.5093C26.9348 23.7037 26.8764 23.8935 26.7674 24.0544C26.6583 24.2153 26.5035 24.3399 26.323 24.412L19.3338 27.2077C19.2177 27.2542 19.0881 27.2542 18.972 27.2077L11.9837 24.412C11.803 24.34 11.6481 24.2156 11.5388 24.0547C11.4296 23.8937 11.3711 23.7038 11.3709 23.5093V15.0833C11.3709 14.9862 11.4 14.8913 11.4544 14.8108C11.5089 14.7304 11.5862 14.6681 11.6763 14.632L18.6111 11.8577Z" fill="#1E1E1E"/>
</g>
<defs>
<clipPath id="clip0_21_162">
<rect width="15.564" height="15.564" fill="white" transform="translate(11.3707 11.6786)"/>
</clipPath>
</defs>
</svg>
