<svg width="10" height="9" viewBox="0 0 10 9" fill="none" xmlns="http://www.w3.org/2000/svg">
<g clip-path="url(#clip0_21_133)">
<path fill-rule="evenodd" clip-rule="evenodd" d="M1.16673 4.60926C1.16673 4.54476 1.19748 4.48291 1.25221 4.4373C1.30693 4.39169 1.38116 4.36607 1.45856 4.36607H8.34155L6.5048 2.83594C6.45001 2.79027 6.41922 2.72834 6.41922 2.66376C6.41922 2.59918 6.45001 2.53725 6.5048 2.49158C6.5596 2.44592 6.63392 2.42026 6.71141 2.42026C6.78891 2.42026 6.86323 2.44592 6.91803 2.49158L9.25263 4.43708C9.27981 4.45967 9.30137 4.48651 9.31608 4.51605C9.33079 4.5456 9.33836 4.57727 9.33836 4.60926C9.33836 4.64125 9.33079 4.67292 9.31608 4.70247C9.30137 4.73201 9.27981 4.75885 9.25263 4.78144L6.91803 6.72694C6.86323 6.7726 6.78891 6.79826 6.71141 6.79826C6.63392 6.79826 6.5596 6.7726 6.5048 6.72694C6.45001 6.68128 6.41922 6.61934 6.41922 6.55476C6.41922 6.49018 6.45001 6.42825 6.5048 6.38259L8.34155 4.85245H1.45856C1.38116 4.85245 1.30693 4.82683 1.25221 4.78122C1.19748 4.73561 1.16673 4.67376 1.16673 4.60926Z" fill="#1E1E1E"/>
</g>
<defs>
<clipPath id="clip0_21_133">
<rect width="9.33841" height="7.78201" fill="white" transform="translate(0.58342 0.71825)"/>
</clipPath>
</defs>
</svg>
